<svg xmlns="http://www.w3.org/2000/svg" width="318.3" height="279.7" viewBox="0 0 318.3 279.7" overflow="visible"><style>.st0{fill:#e86d1f}.st2{fill:#fff}</style><path class="st0" d="M180.5 263.1l-2.3.5 1 6.3 1.5-.3c2.7-.5 3.2-2.5 2.9-4.3-.4-1.3-1.2-2.6-3.1-2.2zm-58.8.6l2.5.7-.2-3.3-2.3 2.6zm11.2-.6l-1.6-.3-.6 2.4 1.6.3c1.2.2 1.8-.3 2-1 .2-1-.6-1.3-1.4-1.4zm-.8 3.8l-1.7-.3-.6 2.7 1.6.3c1.5.3 2.1-.2 2.2-1 .3-1.2-.6-1.6-1.5-1.7zm128.8-73.4c-19.5 38.3-59.3 64.5-105.3 64.5-65.2 0-118.1-52.9-118.1-118.1 0-2.4.1-4.8.2-7.2-5.9-.4-13.3-1.5-21.5-4.4-.3 3.8-.5 7.6-.5 11.5 0 77.2 62.6 139.8 139.8 139.8 56.1 0 104.5-33 126.8-80.7l-16.4-3c.1.1-2.6-.9-5-2.4zm-160.8 65.4c.3.2.7.4 1.8.8l-.8 1.4L95 258c1.1-1.6 3.7-6.5 4.6-8.1l6.1 3.1-.8 1.3c-.7-.4-1.4-.8-2.1-1.1l-2-1-1.2 2.1 2 1c.5.2 1 .5 1.7.8l-.7 1.2-3.7-1.8-1.2 2.2 2.4 1.2zm11.3-1.7c-.5-.4-1-.9-1.6-1.1-.8-.3-1.6-.2-1.8.4-.6 1.3 2.4 3.6 1.5 5.7-.4 1-1.7 2-4 1-.8-.3-1.6-.8-2.3-1.4l.5-1.6c.6.6 1.2 1.2 2 1.5.6.3 1.5.4 1.8-.4.6-1.4-2.4-3.7-1.5-5.8.6-1.5 2.4-1.6 3.9-.9.7.3 1.3.7 1.9 1.1l-.4 1.5zm.6 8.4c1-2.1 2-4.8 3-7.3-1.9-.7-2.2-.7-2.8-.9l.6-1.4 7.5 2.6-.6 1.4c-.8-.3-1.6-.6-2.7-1-.9 2.2-1.9 4.4-2.9 7.3l-2.1-.7zm12.3 3.8c0-1.2-.1-2.3-.2-3.4l-3.5-1-2.4 2.7-2.2-.6c2.4-2.5 4.9-5.1 7.2-7.7l2.4.7c.2 3.3.5 6.6.8 9.9l-2.1-.6zm12-4.9c-.2 1.2-1 1.9-2.1 1.9 1.1.4 1.6 1.3 1.4 2.5-.3 1.7-1.8 2.3-4 1.9l-4.1-.8c.4-1.3 1.5-5.4 2.2-9.1l4.8.9c1 .4 2.2 1.1 1.8 2.7zm7.1 8.2l-6.5-.8c.7-3 1.2-6.1 1.7-9.2l2.2.3c-.2.8-1.1 6-1.4 7.7l1.7.2 2.7.3-.4 1.5zm3.4.2l-2.2-.2c.4-2.8.8-5.5 1.1-9.3l2.2.2c-.4 2.7-.8 5.3-1.1 9.3zm8.1-1.9c0 1-.8 2.5-3.4 2.4-.9 0-1.8-.2-2.6-.5l-.1-1.7c.8.4 1.6.7 2.4.7.7 0 1.5-.2 1.6-1 .1-1.5-3.5-2.6-3.4-4.9.1-1.6 1.7-2.3 3.3-2.3.7 0 1.5.2 2.2.3l.1 1.6c-.6-.2-1.3-.5-1.9-.5-.9 0-1.5.4-1.6 1-.1 1.6 3.5 2.7 3.4 4.9zm10.9 2l-2.2.1c.1-1.2.1-2.4.1-4.2l-4.6.2v4.2l-2.2.1c.1-2.9.2-5.6.1-9.3l2.2-.1c0 .9-.1 1.9-.1 3.7l4.7-.2v-3.7l2.2-.1c-.3 3.1-.4 6.2-.2 9.3zm2.4-.2c0-1.9-.4-7.4-.6-9.3l6.8-.8.1 1.5c-.8 0-1.6.1-2.4.2l-2.3.3.2 2.4 2.2-.3c.5-.1 1.1-.2 1.8-.3l.1 1.4-4.1.5.2 2.6 2.7-.3c.4 0 .8-.1 1.9-.3l.1 1.6-6.7.8zm13-1.9l-4 .8c-.1-1.5-.7-5.6-1.4-9.2l4.5-.9c2.3-.5 4.4.3 5 3.4.7 2.8-.5 5.2-4.1 5.9zm13.7-3.4c-.6-2.4-1.3-4.8-1.9-7.3l-1 1.2-.5-1.7c.4-.4.7-.8 1-1.3l2-.6c.3 1.6 1.5 6.2 2.4 9l-2 .7zm10.5-3.8l-2.4 1c.5-1.9 1.7-5.5 1-7.3-.3-.9-1.1-1.3-2-.9-.9.4-1.4 1.2-1 2.2.4.9 1.1 1 2 .7.3-.1.5-.3.7-.4l-.3 1.7c-.2.1-.4.2-.7.3-1.4.6-2.9.2-3.6-1.3-.8-2.1.4-3.8 2.3-4.5 2.9-1.2 4 .7 4.3 1.5.9 1.9.2 4.9-.3 7zm7.9-3.4c-1.7.8-3.6.7-4.5-1.1-.6-1.2-.9-2.9-.1-7.2l2.3-1.1c-.5 1.9-1.3 5.5-.5 7.3.4.9 1.2 1.3 2.2.8.9-.4 1.2-1.3.7-2.2-.4-.7-1-1.1-1.8-.7-.3.2-.6.3-.9.6l.1-1.6c.2-.2.5-.3.8-.5 1.5-.7 2.8-.3 3.6 1.2.3.4 1.2 3-1.9 4.5zm8.8-4.9l-2.2 1.3c.2-1.9.9-5.7-.1-7.4-.5-.8-1.3-1.1-2.1-.6-.9.5-1.2 1.4-.7 2.3.5.8 1.3.9 2.1.4.3-.1.5-.3.7-.5l-.1 1.7c-.2.2-.4.3-.6.4-1.3.8-2.9.6-3.7-.8-1.1-1.9-.1-3.8 1.7-4.8 2.7-1.6 4.1.1 4.5.8 1 2 .7 5.1.5 7.2zM155.7 0C90.2 0 35.3 45 20.1 105.8c6.5 2 14 4.5 20.6 7.2 12.2-52.2 59-91.2 115-91.2 65.2 0 118.1 52.9 118.1 118.1 0 14-2.4 27.4-6.9 39.9 4.3-1.7 11.6-3 23.1-.8 3.6-12.4 5.6-25.6 5.6-39.2C295.6 62.6 232.9 0 155.7 0z"/><path d="M98.6 161.1s8 .4 16.3-3.8c0 0 7.6-4.3 9-5.7 0 0 1.2-1.5 3.1-2.4l-22.4-6.4v.1l-6.1 7.6c-.5 3.5-1.1 9.2.1 10.6zm168.2 18.7c4.5-12.5 6.9-25.9 6.9-39.9 0-65.2-52.9-118.1-118.1-118.1-56 0-102.8 38.9-115 91.2l-1.5-.6c1 .4 10 4.2 12.3 5.9l2.3 6.1.4.8L92 135.8c2.8-1.5 6.5-2.1 10.1 1.7.4.4.7.8 1 1.2 0 .1.1.1.1.1v.1s0 .1.1.1l30.6 8.6c-.1-.4-.1-.8-.2-1.2 0 0-5.2-4.3-5.4-6.1 0 0 15.4 3.9 20.5 7.3 0 0 1.8 1.6.7 3.5l10.8-3.5-14.8-2.5h-.1l.1-.1-.7-2.8-4.2-7.2v-13.2c.4-2.3 7.4-6.5 7.4-6.5l8.6-.3s6.8 2.8 4.8 20.1l-2.9 4.3-1.6.1s2.6-3.6 2.5-10.4l-.4-3.1v-.1c-3.6-2.6-6.3 1.8-6.3 1.8l1.9 7-1.9.2.7 7.1-5.1.8 2.8 1.1c5.9-1.4 15.1-3.7 15.7-4.3 0 0 3.7 2.4 4.6 9.7 6 2.7 8.4 7.6 9.4 11.3l23.4 6.6 2.7-3.8s2.2-.4 4.7.3h.1c.1 0 .1 0 .2.1.5.2 1.1.4 1.6.7 4.1 1.9 5.5 4.5 5.7 7l42.4 11.9s13-1.8 49.1 10.6l2.6 2.6-41.7-10.7s-2.2 4-13.9 1.4l.7-.7-39.6-11.3c-.1.2-.1.4-.2.6 0 .1-.1.1-.1.2-.1.3-.2.6-.4.8-.7 1.3-1.2 1.7-1.4 1.9-1.2-.6-2.3-2.7-3-4.3l-1 2c-5 .3-7.3-2.5-7.3-2.5l-.7 1 .8 1.8c-6.2 7.3-28.3 4.8-28.3 4.8-2.3-1.4-5.7-8.8-8.1-14.2-.4 1.2-.8 2.4-1.3 3.7l-.5 1.6s.9 12 2.1 17.7l17.9-1.1c13-.7 17.1-4 17.1-4 7.4-4.1 10 1.6 10 1.6 2.3 3.5 2.1 16.5 2.1 16.5v1.2c2.1-.7 8.8-3.7 11.2-12.4 0 0 .8-4.2-.5-8.1 0 0 3.9-1.1 6.2 8.5 0 0 1.9 9.2-2.9 16.4 0 0 1.5 2.5 6.8.7 0 0 8.2-2.5 8.1 6.2 0 0-6.1-6.3-12.9-3.2 0 0-2.1 1.3-2.9 2.2 0 0-5 4.1-9.6 2.9 0 0-.1-2.5-1.5-3.3 0 0 8.6-1.9 8.7-14.1 0 0-3.6 9.3-11.4 11.9-1.4 8.1-4.3 13.9-4.3 13.9-5.2 10.4-12.5 10.7-12.5 10.7 8.3-6.2 11.2-20.9 11.2-20.9 2.6-9.9-.6-21.1-.6-21.1-1.3-5.1-4.9-3.5-4.9-3.5-7 3.1-31.5 3.1-31.5 3.1h1.7c-1.7 0-27.1.6-27.1.6-4.1-.1-26.9 2-26.9 2-6.3.6-18.9 2.3-22.7 2.9 1.8 2.2 2.9 3.7 2.9 3.7.9 1 3.7 5.5 7 10.9 3.7-2.6 12.2-6.3 12.2-6.3 11.9-4.8 31.2-7.4 31.2-7.4 22.5-2.4 35.4 1.3 41.6 4.1 0 0 1.8.6 3.8 2.1.5.3.8.6.8.6l.2.2c2.6 2.3 5.4 6.2 5.3 12.3 0 8.3-5.9 14.9-5.9 14.9-1-8.2-12.6-11.6-12.6-11.6-9.2-3.4-22.2-.3-22.2-.3-12.5 1.8-34.2 8.6-41.4 11 1 2.1 3.6 7.8 3.6 8.4.4 1.2.1 1.5.1 1.5l-1-1.7-5-7.4h-.1l-.1-.3-9.2-13.5c-12.9-20-19.7-22.6-19.7-22.6-7.5-3.4-10 1-10 1-2.3 2.9-4.5 3.2-4.5 3.2-10.3 2.2-13.1-5.4-13.1-5.4 7.7 6.1 11.2.2 11.2.2.6-1.2 1.8-2.8 1.8-2.8 4.6-5.7 15.6 1 15.6 1-13.1-11.6-18.7-5.1-18.7-5.1-1.5 1.5-3.9 2.3-3.9 2.3-12.9 2.7-21.6-10.4-21.6-10.4 14.9 9.9 17.8 2.8 17.8 2.8.1-.1.1-.3.2-.4.6-1.3 1.4-2.1 2.2-2.6l.2-.2c.1 0 .2 0 .2-.1 1-.5 1.7-.5 1.7-.5 5.5-.8 11.7 3.1 11.7 3.1 6.4 3.2 12.3 9.2 16.2 13.6 11.1-3.1 31.2-5.1 31.2-5.1 1.3-.2 16-1.1 26.3-1.7-.1 0-.3-.1-.4-.1-8.8-1.2-15.1-1.5-19.3-1.4l-6.8-12.9 2.7 13.1c-2 .2-2.9.4-2.9.4l-1.7-9.1-1.5-7.7c-1.5-.6-2.3-3.6-2.3-3.6 2.8 2.3 3.3-5.6 3.3-5.6l-3.2 3.5c-16.8 5.2-29.4 2-29.4 2-6.4-6.8-1.6-18.7.4-23-.9-.8-1.9-2.2-2.4-4.4l2.5-2.3 2 2.1c1.8-.2 3.7-.5 5.1-1.1l-7.7-2.2c-.3.3-.7.7-1 1.2l-4-.5c.4-.7.8-1.3 1.3-1.8l-36.3-10.4-2.8-3.5s-27.5-1.1-41.4-11.8l40.9 9.5s-.8-4-9.7-9.8c-14.9-5.9-34-10.8-34-10.8-5.2 2-5.6 19-5.6 19 14.1 9.1 28.1 11.8 37.8 12.4-.1 2.4-.2 4.8-.2 7.2 0 65.2 52.9 118.1 118.1 118.1 45.9 0 85.7-26.2 105.3-64.5 2.4 1.6 5.1 2.5 5.1 2.5l41.7 7.6 6.1-5c3.7-1 4.4-9.9 4.4-9.9-29.2-13.4-44.3-11.8-51.5-8.9zM129 89.9c-1.9-.1-3.8-.1-6.5-.1-.3 4.8-.6 9.8-.7 16.1H117c.4-4.8.7-10.6.9-16.1-4.5 0-5.1.1-6.5.1l.1-3.1h17.6l-.1 3.1zm20.8 15.9h-5c-1.5-3.6-3.5-7.1-5.3-10.6.6.1 1.2.2 1.9.2 2.4 0 4.6-1 4.6-3.4 0-2.2-2.2-2.5-4.1-2.5-1.1 0-2.2.1-3.3.1-.1 2.5-.5 13.3-.5 16.1h-4.7c.7-6.3.9-12.7.9-19.1h9.4c3.6 0 6.8 1.2 6.8 4.8 0 3.3-2.4 5-5.7 5.6l5 8.8zm11.2 0h-4.9c.4-5.8.8-11.4.8-19.1h4.9c-.4 5.4-.7 10.8-.8 19.1zm16-7.9c-.7 0-1.5-.1-2.3-.2L174 95c.6.1 1.2.1 1.7.1 2.9 0 4.3-1.2 4.3-3.3 0-1.8-1.1-2.3-3.3-2.3-1.1 0-2.2.1-3.3.1-.1 1.8-.5 11.4-.5 16.1h-4.5c.4-3.3.9-14.3.9-19.1h9.9c4.1 0 5.4 3 5.4 5-.1 4.1-3.5 6.3-7.6 6.3zm18.4 8.2c-2 0-3.9-.3-5.8-.7l-.3-3.5c1.7.7 3.6 1.2 5.5 1.2 1.5 0 3.4-.5 3.4-2.1 0-3-8-5-8-9.7 0-3.3 3.5-4.9 7.2-4.9 1.7 0 3.3.2 4.9.5l.3 3.3c-1.4-.5-2.8-.8-4.3-.8-2 0-3.4.9-3.4 2.1 0 2.9 8 4.9 8 9.4-.1 2.2-1.8 5.2-7.5 5.2zM75.2 173.2c.2-.7.6-.9.6-.9.8-.7 2.6-1.1 6.4 1.5 0 0 3.5 2.4 4.5 9.9 0 0-3.6-6.7-7.8-6.9-1.6.2-2.7-1.2-2.7-1.2-.9-1-1.1-1.8-1-2.4 0 .1 0 .1 0 0zm18.5 45.6c-1.8-1.1-5.6-3.1-9.9-3.5h-.1c-8.2.6-8.2-1.8-8.2-1.8.9-1.9 6.8-1.9 6.8-1.9l.1.1c17.4-.3 28.6 24.5 28.6 24.5-7.7-9.3-13.3-14.5-17.3-17.4zm141 5.6c-.8.7-1.6 1.2-2.5 1.5h-.1-.2c-3.3 1.1-6.9 0-6.9 0-2.9-.6-6.1-2.2-8.6-5.9 0 0 9.7 4.5 15.5.8 0 0 2.4-1.8 3.1-4.6 0 0 .2-2.2 1.5.1 0 .2 1.9 4.8-1.8 8.1zm10.3-19.2s-.7.8-4.1.4c0 0-2.3-.4-4.7 2.4 0 0 1.4-6.1 6.5-5.5 0 0 3.5.8 2.3 2.7zm-111.6-43.6c0-2.3-.8-5.8-6.5-5.7 0 0-3.5-.1-9.3 3.9 0 0-15.9 4.6-21.1 3.3 0 0-1.1-3.2-.9-7.7l-1.5-1c-1 5.7.7 9.6.7 9.6 3.5 4.1 33.8-4.8 33.8-4.8 2.3 2.8 2 5.8.8 8.2 1.6-1.2 3.1-3.1 4-5.8zm76.9 4.9c-.2.7-.2 1.5-.1 2.5l2.7.7c-.6-.9-1.8-2.6-2.6-3.2zm-26.8 3.7c4.4 5.2 12.2 2.2 16.6-.1l-18.8-5.4v1.3c.7 1.6 1.4 3 2.2 4.2zm-12-17.9c0 1.7-.1 3.6-.4 5.7l3.9 1.1c.1-3.4-1.7-5.5-3.5-6.8zm-14-31.2c-.2-1-.4-2.1-.8-3.2l-.7-1.5c-3.5-.1-8.4 3.3-8.4 3.3-3.5 2-3 3.4-1.7 4.4 3.9-4.1 9.6-3.4 11.6-3zm12.6 41.9c.9 4 3.6 8.1 3.6 8.1 4.4 9.5 16.7 8.2 16.7 8.2-18.7-5.2-16.2-15.8-15.9-16.6l-4-1.1c-.1.5-.2.9-.4 1.4zm-18.8-1.9l.1 10.8-9.8 1.3 10 2.2.4 11.2 1.9 1.2-.4-12.3 6.7.1 1-4.7-7.8.9-.3-10.1 14 2.3 1.6-2-31.6-8.3 14.2 7.4zm8.9-13.6l.2.1h.1l-.3-.1z" fill="#005daa"/><path class="st0" d="M209.9 216.2c2.6-9.9-.6-21.1-.6-21.1-1.3-5.1-4.9-3.5-4.9-3.5-7 3.1-31.5 3.1-31.5 3.1h1.7c-1.7 0-27.1.6-27.1.6-4.1-.1-26.9 2-26.9 2-6.3.6-18.9 2.3-22.7 2.9 1.8 2.2 2.9 3.7 2.9 3.7.9 1 3.7 5.5 7 10.9 3.7-2.6 12.2-6.3 12.2-6.3 11.9-4.8 31.2-7.4 31.2-7.4 22.5-2.4 35.4 1.3 41.6 4.1 0 0 1.8.6 3.8 2.1.5.3.8.6.8.6l.2.2c2.6 2.3 5.4 6.2 5.4 12.3 0 8.3-5.9 14.9-5.9 14.9s-.2 2.1 2.1 1.6c7.9-6.4 10.7-20.7 10.7-20.7zM144.5 49.9c0-.3-1.3-7.9-1.5-8.7.4-.1.9-.2.9-.2l-.4-3-1.2-6.7-18 3.8.6 2.9c.3 1.3.7 3.3 1.1 5.6-.9-2-3.3-7.1-3.3-7.1l-2.2.3c-2.4.3-4.5.8-6.4 1.6-6.4 2.7-8.4 8.3-7.9 13.8-1.1-1.8-2.3-3.5-3.3-5.2l-1.7-2.7-7.7 5.7s3.1 4.5 4 5.9C95 54.4 90.8 52 90.8 52l-1.6 1.1-6.2 4.4 1.7 2.4c2.2 3.1 4.2 6.1 6 8.9-3.5-1.8-6.9-3.6-10.3-5.4l-2.1-1.1-6.1 6.6.9 1.9c1.7 3.4 3.5 6.9 5.2 10.5l-.2.1c-.8-1.1-1.9-2.2-3.3-3.1-4.5-2.8-9-1.8-11.8 2.6l-5.6 9 2.5 1.6c1.5 1 3 1.9 4.4 2.8-2.3-.2-4.5.1-6.5 1-2.8 1.3-4.9 3.5-6 6.6-.6 1.6-.9 3.1-.9 4.7 0 5.5 3.9 10.3 10.7 12.9 4.1 1.5 8 1.6 11.2.1 2.8-1.3 5-3.7 6.2-6.8 1-2.7 1.1-5.5.3-8l1.6 1.2 5.3-8.5s-.4-.3-.8-.5c.5.1.9.3.9.3l3.6-5.7 2.8-3s-2.8-5.3-3.9-7.4c.6-.7.8-.8 1.4-1.5 1.8 1 3.5 1.9 5 2.7l2.1 1.2 3.6-3.9 5.5-3.9s-2.9-4.3-4-5.9c2.3 1.3 6.8 3.8 6.8 3.8l7.6-5.4-1.3-1.8c2.7 1 5.9.8 9.3-.7 1.7-.7 3.2-1.7 4.5-2.6l17.7-3.8-1.7-9.8c.3-.1-.3.1-.8.3zm-68.2 61.7c-1.8 4.8-6.7 7.5-13.5 4.9-7.6-2.8-10.1-8.3-8.1-13.7 1.8-4.9 6.8-7.2 13.7-4.7 7.5 2.9 9.9 8.2 7.9 13.5zm32.9-41.5L93.1 61l-.1.1c2.5 3.7 6 9 9.4 13.8L99.5 77s0-.1-.1-.1l-2.6 2.8a172 172 0 00-7.1-3.9l-4.4 4.8c1.2 2.4 2.5 4.9 3.9 7.4l-2 2.2h.1l-2.2 3.4c-4.3-1.3-8.6-2-12.8-3 .4-.4.7-.7 1-1.2 1-1.6 1-3.8-1.4-5.3-2.2-1.4-3.4 0-4.2 1.2-.5.8-.9 1.6-1.3 2.4 2.4 1.6 13 8.7 15.9 10.5l-2 3.2c-6-4.4-12.3-8.6-18.6-12.6l4.1-6.4c1.6-2.5 4.1-3.9 7.7-1.7 3.3 2.1 3.9 4.8 3.1 7.5l9.4 1.7c-3.2-6.9-6.6-13.8-10-20.6l3.1-3.4c6.7 3.6 13.5 7.1 20.3 10.5-3.9-6.2-7.9-12.3-12.1-18.3l3.8-2.7c5.4 3.3 10.8 6.1 16.2 9.4-2.9-4.4-6.3-9.5-9.5-14.1l2.8-2c3.9 6.2 8.1 12.6 12.4 18.8l-3.8 2.6zm14.6-7.1c-6 2.6-10.5.2-13.3-6.2-2.4-5.5-2.2-12.5 4.8-15.5 1.7-.7 3.6-1.2 5.6-1.4l1.7 3.6c-1.8 0-3.7.2-5.4.9-3.8 1.6-5.4 5.8-3.1 11.1 1.9 4.5 4.9 5.7 8.1 4.3 1-.4 2-1.1 2.8-1.8l-2.1-5.4-2.8 1.2-1.2-3.1 6.1-2.6c1.2 3.4 2.5 6.7 4.4 11.5-1.7 1.2-3.5 2.5-5.6 3.4zm8-3.4c-.5-4.6-3-17.7-3.9-22.2l12-2.6.7 3.7c-1.4.2-2.8.5-4.3.8l-4 .9 1 5.8 4-.8c.9-.2 1.9-.5 3.3-.8l.6 3.4-7.2 1.5 1.1 6.1 4.8-1c.6-.1 1.4-.3 3.4-.9l.6 3.7-12.1 2.4zm48.5-19.5c-3.7-.9-6.7 2.2-7.8 6.9-1.1 4.5.4 7.9 3.8 8.7 3.6.9 6.5-2.2 7.6-6.9 1-4.3-.2-7.9-3.6-8.7zm.6 8.1c-.1.5-1.3 5.3-4 4.6-.6-.1-1-.4-1.3-.9-.6-.9-.7-2.4-.2-4.2.5-2 1.9-5.2 4.2-4.7 1.3.3 1.6 1.7 1.6 2.9 0 1.1-.2 2.1-.3 2.3zm61.3 52.3c-4.3 1.7-6.2 5-4.9 8.2 1.4 3.5 5.6 4 10 2.2 4.2-1.7 6.4-4.8 5.1-8-1.4-3.5-5.6-4.2-10.2-2.4zm4 7.6c-.5.2-5.1 2-6.1-.6-.2-.6-.2-1.1 0-1.6.4-1 1.6-2 3.3-2.6 2-.8 3.9-1 5.1-.5.6.2 1 .6 1.2 1.2.8 2.3-3.1 4-3.5 4.1zm-179-6.3c-4.2-1.6-7.9-.8-9.2 2.4-1.3 3.6 1.3 6.9 5.9 8.7 4.3 1.6 7.9.6 9.1-2.7 1.3-3.5-1.3-6.7-5.8-8.4zm3 7.4c-.2.6-.6 1-1.1 1.2-1 .4-2.5.3-4.2-.3-2-.7-3.5-1.9-4.1-3.1-.3-.6-.3-1.1-.1-1.7.8-2.3 4.8-.8 5.3-.7 2 .8 3.5 1.9 4.1 3 .3.5.3 1 .1 1.6zm13.3-31.9l3.2-3.5-6.8-3.7 3.6 7.2zm175 23.3c-2.2-5.4-6.9-8.2-12.7-7.8 1.6-1.8 2.6-3.7 2.9-5.7.5-2.6-.2-5.2-1.8-7.6l-6.4-9.3-2.5 1.7c-.8.5-1.6 1.1-2.4 1.6l4.3-4.1-13.2-12.9-2.1 2.1-1 1c.6-2.7-.1-5.5-2.8-7.4l-9.1-6.3-1.7 2.5c-.3.4-.6.9-1 1.4v-.5c0-3.1-1.8-5.6-5.1-7.2l-9.6-4.5-1.3 2.7c-.8 1.6-1.5 3.2-2.3 4.7-.1-2.3-.7-4.5-1.8-6.3-1.6-2.6-4.1-4.4-7.3-5.1-4.5-1.1-8.5.1-11.5 3l.3-5.3-20.3-.8-.6 9.8h5.3c-.4 6.2-.8 11.5-1.2 15.6l-.3 3.2 10.1.4.1-3c.3-6.1.6-11.3 1-15.9.7.1 1.4.1 2.1.2h.4c-.7 1.4-1.2 2.9-1.6 4.6-2.2 9.4 2.8 15 8.8 16.4 2.8.7 5.6.4 8-.7l-1 1.7 9 4.2s.2-.5.4-.8l-.2 1 5.5 2.6 6.6 4.6 1.7-2.5c1-1.4 2.3-3.2 3.7-5.1l.2.2c1.9 1.3 4 1.8 6 1.6-2.4 2.3-4.6 4.3-5.9 5.4l-2.6 2.1 12.3 12 4.2 6.1c2.5 3.5 5.9 5.3 9.8 5.2-2.5 3.6-2.7 7.8-1.2 11.4 2.9 7.2 10.3 9.6 18.8 6.2 4.2-1.7 7.2-4.4 8.6-7.7.6-1.4.9-2.9.9-4.3.5-1.4.2-2.9-.5-4.4zm-91.2-62.5c-1.6-.2-3.1-.3-5.3-.4-.5 5.7-1 11.5-1.3 18.9l-3.9-.2c.6-5.6 1.1-12.4 1.5-18.9-3.7-.1-4.1-.1-5.3-.1l.2-3.7 14.3.6-.2 3.8zm8 21.1c-5-1.2-8.3-5.7-6.6-12.8 1.9-7.8 6.9-11.1 12.6-9.7 5 1.2 8 5.9 6.4 13-1.9 7.8-6.9 10.8-12.4 9.5zm22.6 8.3l-3.7-1.7c.7-4.4 1-8.7 1.4-13.1.4.3.8.6 1.3.8 1.7.8 3.9.5 5.1-2.1 1.1-2.4-.4-3.4-1.8-4.1-.8-.4-1.7-.7-2.5-1-1.3 2.6-7 14-8.4 17.1l-3.5-1.6c3.7-6.5 7-13.3 10.2-20.1l6.9 3.2c2.7 1.2 4.4 3.6 2.6 7.4-1.7 3.6-4.3 4.5-7 4l-.6 11.2zm12.4-2.7c-.5-.3-1-.7-1.4-1.2l1.4-3c.3.4.7.7 1.1.9 1.9 1.3 3.7.9 5.1-1.2 1.2-1.8.8-2.8-.6-3.8-.7-.5-1.5-1-2.3-1.4-1.3 1.7-8 10.8-11.2 15.4l-3-2.1c2.5-3 10.2-13.5 13.4-18.1l6.6 4.6c2.7 1.9 1.6 5.4.2 7.3-2.9 3.9-6.6 4.5-9.3 2.6zm.2 11.7c3.5-2.9 13.1-12.3 16.3-15.5l8.8 8.6-2.7 2.6c-1-1.1-2-2.1-3-3.1l-3-2.9-4.2 4.1 2.9 2.8c.7.7 1.5 1.3 2.5 2.3l-2.5 2.4-5.3-5.2-4.5 4.3 3.5 3.5c.5.5 1 1 2.7 2.3l-2.7 2.6-8.8-8.8zM225 92.7l-4.2-6c3-1.8 11.5-7.1 18.9-12.2l4.7 6.8c2.5 3.5 2.1 8-4 12.2-5.6 3.9-11.6 4.5-15.4-.8zm23.8 21.7c-7.4 3-12.8.8-14.9-4.5-1.9-4.7-.2-10 6.6-12.8 7.5-3 13-.8 15.2 4.6 2 4.8-.1 10-6.9 12.7zM241.3 83l-2.5-3.5-12.8 8.3 1.5 2.2c2.9 4.2 7.4 2.9 10.9.4 2.6-1.7 5-4.5 2.9-7.4zm-2.2 2.4c-.1.5-.8 1.5-2.3 2.6-4.2 2.9-5.8 1.5-6.5.6 2.5-1.6 5.4-3.5 7.8-5.1.3.5.8 1.1.8 1.1.2.3.2.5.2.6v.2z"/><path class="st2" d="M58 104.2c1.2-3.2 5-4 9.2-2.4 4.5 1.7 7.2 4.9 5.9 8.4-1.2 3.2-4.8 4.3-9.1 2.7-4.7-1.7-7.3-5.1-6-8.7zm-3.3-1.3c-2 5.4.5 10.9 8.1 13.7 6.9 2.6 11.7-.2 13.5-4.9 2-5.4-.4-10.6-7.9-13.4-6.8-2.7-11.9-.3-13.7 4.6zM87.3 90.2l-2.2 3.4c-4.3-1.3-8.6-2-12.8-3 .4-.4.7-.7 1-1.2 1-1.6 1-3.8-1.4-5.3-2.2-1.4-3.4 0-4.2 1.2-.5.8-.9 1.6-1.3 2.4 2.4 1.6 13 8.7 15.9 10.5l-2 3.2c-6-4.4-12.3-8.6-18.6-12.6l4.1-6.4c1.6-2.5 4.1-3.9 7.7-1.7 3.3 2.1 3.9 4.8 3.1 7.5l10.7 2z"/><path class="st2" d="M83.5 77.3l-3.7-7.1 6.8 3.7-3.1 3.4zm6.2-1.5c2.3 1.2 4.8 2.5 7.1 3.9l2.7-3c-6.9-3.5-13.9-7.1-20.7-10.7l-3.1 3.4C79.5 76.5 83 83.8 86.4 91l2.8-3.1c-1.3-2.5-2.7-5-3.9-7.4l4.4-4.7z"/><path class="st2" d="M93.1 61c2.5 3.8 5.9 9.1 9.3 13.9L99.5 77c-4-6.4-8.1-12.6-12.4-18.8l3.8-2.7c5.4 3.3 10.8 6.1 16.2 9.4-2.9-4.4-6.3-9.5-9.5-14.1l2.8-2c3.9 6.2 8.1 12.6 12.4 18.8l-3.6 2.6L93.1 61zM125.1 48c1.2 3.4 2.5 6.7 4.4 11.5-1.8 1.4-3.6 2.6-5.7 3.5-6 2.6-10.5.2-13.3-6.2-2.4-5.5-2.2-12.5 4.8-15.5 1.7-.7 3.6-1.2 5.6-1.4l1.7 3.6c-1.8 0-3.7.2-5.4.9-3.8 1.6-5.4 5.8-3.1 11.1 1.9 4.5 4.9 5.7 8.1 4.3 1-.4 2-1.1 2.8-1.8l-2.1-5.4-2.8 1.2-1.2-3.1 6.2-2.7zM139.9 34.9l.7 3.7c-1.4.2-2.8.5-4.3.8l-4 .9 1 5.8 4-.8c.9-.2 1.9-.5 3.3-.8l.6 3.4-7.2 1.5 1.1 6.1 4.8-1c.6-.1 1.4-.3 3.4-.9l.6 3.7-12.1 2.6c-.5-4.6-3-17.7-3.9-22.2l12-2.8zM167.6 34.4l-.2 3.7c-1.6-.2-3.1-.3-5.3-.4-.5 5.7-1 11.5-1.3 18.9l-3.9-.2c.6-5.6 1.1-12.4 1.5-18.9-3.7-.1-4.1-.1-5.3-.1l.2-3.7 14.3.7zM180.3 40.1c3.4.8 4.6 4.4 3.6 8.8-1.1 4.7-4 7.7-7.6 6.9-3.4-.8-4.9-4.2-3.8-8.7 1.1-4.8 4.1-7.8 7.8-7zm.9-3.4c-5.6-1.3-10.7 1.9-12.6 9.7-1.7 7.1 1.6 11.6 6.6 12.8 5.6 1.3 10.5-1.7 12.3-9.5 1.8-7.1-1.2-11.8-6.3-13zM197.9 67.5l-3.7-1.7c.7-4.4 1-8.7 1.4-13.1.4.3.8.6 1.3.8 1.7.8 3.9.5 5.1-2.1 1.1-2.4-.4-3.4-1.8-4.1-.8-.4-1.7-.7-2.5-1-1.3 2.6-7 14-8.4 17.1l-3.5-1.6c3.7-6.5 7-13.3 10.2-20.1l6.9 3.2c2.7 1.2 4.4 3.6 2.6 7.4-1.7 3.6-4.3 4.5-7 4l-.6 11.2zM210.2 60.5c.3.4.7.7 1.1.9 1.9 1.3 3.7.9 5.1-1.2 1.2-1.8.8-2.8-.6-3.8-.7-.5-1.5-1-2.3-1.4-1.3 1.7-8 10.8-11.2 15.4l-3-2.1c2.5-3 10.2-13.5 13.4-18.1l6.6 4.6c2.7 1.9 1.6 5.4.2 7.3-2.7 3.9-6.4 4.4-9.2 2.5-.5-.3-1-.7-1.4-1.2l1.3-2.9zM235.6 69.5l-2.7 2.6c-1-1.1-2-2.1-3-3.1l-3-2.9-4.2 4.1 2.9 2.8c.7.7 1.5 1.3 2.5 2.3l-2.5 2.4-5.3-5.2-4.5 4.3 3.5 3.5c.5.5 1 1 2.7 2.3l-2.7 2.6-8.8-8.6c3.5-2.9 13.1-12.3 16.3-15.5l8.8 8.4zM238.9 79.4l2.5 3.5c2 2.9-.3 5.7-2.8 7.5-3.6 2.5-8.1 3.7-10.9-.4l-1.5-2.2 12.7-8.4zm.9-4.9c-7.4 5.1-15.9 10.4-18.9 12.2l4.2 6c3.7 5.4 9.7 4.8 15.5.8 6.1-4.3 6.5-8.7 4-12.2l-4.8-6.8zM252.4 102.9c1.3 3.2-.9 6.3-5.1 8-4.4 1.8-8.6 1.2-10-2.2-1.3-3.2.6-6.4 4.9-8.2 4.6-1.8 8.8-1.1 10.2 2.4zm3.4-1.2c-2.2-5.4-7.8-7.6-15.2-4.6-6.8 2.8-8.5 8-6.6 12.8 2.2 5.3 7.5 7.5 14.9 4.5 6.7-2.7 8.8-7.9 6.9-12.7z"/><g><path class="st2" d="M105.7 252.9l-.8 1.3c-.7-.4-1.4-.8-2.1-1.1l-2-1-1.2 2.1 2 1c.5.2 1 .5 1.7.8l-.7 1.2-3.7-1.8-1.2 2.2 2.5 1.2c.3.2.7.4 1.8.8l-.8 1.4-6.2-3c1.1-1.6 3.7-6.5 4.6-8.1l6.1 3zM111.4 257.2c-.5-.4-1-.9-1.6-1.1-.8-.3-1.6-.2-1.8.4-.6 1.3 2.4 3.6 1.5 5.7-.4 1-1.7 2-4 1-.8-.3-1.6-.8-2.3-1.4l.5-1.6c.6.6 1.2 1.2 2 1.5.6.3 1.5.4 1.8-.4.6-1.4-2.4-3.7-1.5-5.8.6-1.5 2.4-1.6 3.9-.9.7.3 1.3.7 1.9 1.1l-.4 1.5zM120.3 258.6l-.6 1.4c-.8-.3-1.6-.6-2.7-1-.9 2.2-1.9 4.4-2.9 7.3l-2.1-.7c1-2.1 2-4.8 3-7.3-1.9-.7-2.2-.7-2.8-.9l.6-1.4 7.5 2.6zM121.7 263.7l2.3-2.6.2 3.3-2.5-.7zm2.4 2.2c.1 1.1.2 2.3.2 3.4l2.2.6c-.3-3.3-.6-6.6-.8-9.9l-2.4-.7c-2.3 2.6-4.8 5.2-7.2 7.7l2.2.6c.8-.9 1.6-1.9 2.4-2.7l3.4 1zM132.1 266.9c.9.2 1.7.5 1.5 1.6-.2.8-.8 1.3-2.2 1l-1.6-.3.6-2.7 1.7.4zm-2.4-5.9c-.7 3.7-1.8 7.7-2.2 9.1l4.1.8c2.1.4 3.6-.2 4-1.9.2-1.2-.3-2.1-1.4-2.5 1.1-.1 1.9-.8 2.1-1.9.3-1.7-.8-2.4-1.9-2.6l-4.7-1zm1.6 1.8l1.6.3c.8.2 1.6.4 1.4 1.4-.1.7-.7 1.3-2 1l-1.6-.3.6-2.4zM143.4 272.7l-6.5-.8c.7-3 1.2-6.1 1.7-9.2l2.2.3c-.2.8-1.1 6-1.4 7.7l1.7.2 2.7.3-.4 1.5zM144.6 272.8c.4-2.8.8-5.5 1.1-9.3l2.2.2c-.4 2.6-.7 5.2-1.1 9.3l-2.2-.2zM155 265.7c-.6-.2-1.3-.5-1.9-.5-.9 0-1.5.4-1.6 1-.1 1.4 3.5 2.5 3.4 4.7 0 1-.8 2.5-3.4 2.4-.9 0-1.8-.2-2.6-.5l-.1-1.7c.8.4 1.6.7 2.4.7.7 0 1.5-.2 1.6-1 .1-1.5-3.5-2.6-3.4-4.9.1-1.6 1.7-2.3 3.3-2.3.7 0 1.5.2 2.2.3l.1 1.8zM163.7 267.5v-3.7l2.2-.1c-.1 3.1-.1 6.2 0 9.3l-2.2.1c.1-1.2.1-2.4.1-4.2l-4.6.2v4.2l-2.2.1c.1-2.9.2-5.6.1-9.3l2.2-.1c0 .9-.1 1.9-.1 3.7l4.5-.2zM174.3 262.7l.1 1.5c-.8 0-1.6.1-2.4.2l-2.3.3.2 2.4 2.2-.3c.5-.1 1.1-.2 1.8-.3l.1 1.4-4.1.5.2 2.6 2.7-.3c.4 0 .8-.1 1.9-.3l.1 1.6-6.8.8c0-1.9-.4-7.4-.6-9.3l6.9-.8zM178.1 263.5l2.3-.5c1.9-.4 2.7 1 3 2.2.3 1.8-.1 3.7-2.9 4.3l-1.5.3-.9-6.3zm-2.2-1.1c.7 3.7 1.2 7.8 1.4 9.2l4-.8c3.6-.7 4.7-3.2 4.2-6-.6-3-2.7-3.8-5-3.4l-4.6 1zM192 261.4l-.5-1.7c.4-.4.7-.8 1-1.3l2-.6c.3 1.6 1.5 6.2 2.4 9l-2.1.7c-.6-2.4-1.3-4.8-1.9-7.3l-.9 1.2zM203 264.7c.5-1.9 1.7-5.5 1-7.3-.3-.9-1.1-1.3-2-.9-.9.4-1.4 1.2-1 2.2.4.9 1.1 1 2 .7.3-.1.5-.3.7-.4l-.3 1.7c-.2.1-.4.2-.7.3-1.4.6-2.9.2-3.6-1.3-.8-2.1.4-3.8 2.3-4.5 2.9-1.2 4 .7 4.3 1.5.8 2.1.1 5.1-.4 7.2l-2.3.8zM211 250.9c-.5 1.9-1.3 5.5-.5 7.3.4.9 1.2 1.3 2.2.8.9-.4 1.2-1.3.7-2.2-.4-.7-1-1.1-1.8-.7-.3.2-.6.3-.9.6l.1-1.6c.2-.2.5-.3.8-.5 1.5-.7 2.8-.3 3.6 1.2.2.5 1.2 3.1-1.9 4.6-1.7.8-3.6.7-4.5-1.1-.6-1.2-.9-2.9-.1-7.2l2.3-1.2zM219.9 256.7c.2-1.9.9-5.7-.1-7.4-.5-.8-1.3-1.1-2.1-.6-.9.5-1.2 1.4-.7 2.3.5.8 1.3.9 2.1.4.3-.1.5-.3.7-.5l-.1 1.7c-.2.2-.4.3-.6.4-1.3.8-2.9.6-3.7-.8-1.1-1.9-.1-3.8 1.7-4.8 2.7-1.6 4.1.1 4.5.8 1.1 1.9.8 5.1.6 7.2l-2.3 1.3z"/></g><g><path class="st2" d="M129.1 86.7l-.1 3.2c-1.9-.1-3.8-.1-6.5-.1-.3 4.8-.6 9.8-.7 16.1H117c.4-4.8.7-10.6.9-16.1-4.5 0-5.1.1-6.5.1l.1-3.1h17.6zM149.8 105.8h-5c-1.5-3.6-3.5-7.1-5.3-10.6.6.1 1.2.2 1.9.2 2.4 0 4.6-1 4.6-3.4 0-2.2-2.2-2.5-4.1-2.5-1.1 0-2.2.1-3.3.1-.1 2.5-.5 13.3-.5 16.1h-4.7c.7-6.3.9-12.7.9-19.1h9.4c3.6 0 6.8 1.2 6.8 4.8 0 3.3-2.4 5-5.7 5.6l5 8.8zM156.1 105.8c.4-5.8.8-11.4.8-19.1h4.9c-.4 5.4-.7 10.8-.8 19.1h-4.9zM174 95c.6.1 1.2.1 1.7.1 2.9 0 4.3-1.2 4.3-3.3 0-1.8-1.1-2.3-3.3-2.3-1.1 0-2.2.1-3.3.1-.1 1.8-.5 11.4-.5 16.1h-4.5c.4-3.3.9-14.3.9-19.1h9.9c4.1 0 5.4 3 5.4 5 0 4-3.4 6.2-7.5 6.2-.7 0-1.5-.1-2.3-.2L174 95zM202.5 90.2c-1.4-.5-2.8-.8-4.3-.8-2 0-3.4.9-3.4 2.1 0 2.9 8 4.9 8 9.4 0 2.1-1.6 5.1-7.4 5.1-2 0-3.9-.3-5.8-.7l-.3-3.5c1.7.7 3.6 1.2 5.5 1.2 1.5 0 3.4-.5 3.4-2.1 0-3-8-5-8-9.7 0-3.3 3.5-4.9 7.2-4.9 1.7 0 3.3.2 4.9.5l.2 3.4z"/></g><path class="st2" d="M76.3 175.7s1.1 1.4 2.7 1.2c4.1.2 7.8 6.9 7.8 6.9-1-7.6-4.5-9.9-4.5-9.9-3.8-2.6-5.6-2.2-6.4-1.5 0 0-.4.3-.6.8v.1c-.2.5 0 1.3 1 2.4zM235 216.4c-.7 2.8-3.1 4.6-3.1 4.6-5.9 3.7-15.5-.8-15.5-.8 2.5 3.6 5.7 5.2 8.6 5.9 0 0 3.6 1.1 6.9 0H232.2c.9-.3 1.7-.8 2.5-1.5 3.7-3.3 1.8-7.9 1.8-7.9-1.3-2.5-1.5-.3-1.5-.3zm1.2-8.4c2.4-2.8 4.7-2.4 4.7-2.4 3.4.4 4.1-.4 4.1-.4 1.3-1.9-2.3-2.7-2.3-2.7-5.1-.6-6.5 5.5-6.5 5.5zm-153.8 3.6l-.1-.1s-5.9 0-6.8 1.9c0 0 0 2.4 8.2 1.8h.1c4.3.4 8.2 2.5 9.9 3.6 4 2.9 9.6 8.1 17.4 17.3-.1 0-11.3-24.8-28.7-24.5zM310.6 194c-36.1-12.4-49.1-10.6-49.1-10.6l-42.4-11.9c-.2-2.5-1.6-5.1-5.7-7-.5-.3-1.1-.5-1.6-.7-.1 0-.1 0-.2-.1h-.1c-2.5-.7-4.7-.3-4.7-.3l-2.7 3.8-23.4-6.6c-1-3.8-3.4-8.7-9.4-11.3-.9-7.3-4.6-9.7-4.6-9.7-.5.6-9.8 2.9-15.7 4.3l-2.8-1.1 5.1-.8-.7-7.1 1.9-.2-1.9-7s2.7-4.5 6.3-1.8v.1l.2 3.1c.1 6.8-2.5 10.4-2.5 10.4l1.6-.1 2.9-4.3c2.1-17.3-4.8-20.1-4.8-20.1l-8.6.3s-7 4.2-7.4 6.5V135l4.2 7.2.7 2.8-.1.1h.1l14.8 2.5-10.8 3.5c1.1-1.9-.7-3.5-.7-3.5-5.1-3.4-20.5-7.3-20.5-7.3.2 1.8 5.4 6.1 5.4 6.1.1.4.2.8.2 1.2L103 139s0-.1-.1-.1v-.1c0-.1-.1-.1-.1-.1-.3-.4-.6-.8-1-1.2-3.6-3.8-7.3-3.2-10.1-1.7l-37.9-10.6-.4-.8-2.3-6.1c-2.4-1.9-12.4-6-12.4-6 9 5.8 9.7 9.8 9.7 9.8l-40.9-9.5c13.9 10.7 41.4 11.8 41.4 11.8l2.8 3.5L88 138.3c-.5.5-.9 1.1-1.3 1.8l4 .5c.3-.5.6-.9 1-1.2l7.7 2.2c-1.4.6-3.3.9-5.1 1.1l-2-2.1-2.5 2.3c.4 2.2 1.4 3.6 2.4 4.4-2 4.2-6.8 16.2-.4 23 0 0 12.6 3.1 29.4-2l3.2-3.5s-.5 7.9-3.3 5.6c0 0 .8 3 2.3 3.6l1.5 7.7 1.7 9.1s.9-.2 2.9-.4l-2.7-13.1 6.8 12.9c4.2-.1 10.5.2 19.3 1.4.1 0 .3.1.4.1-10.3.6-25 1.5-26.3 1.7 0 0-20.1 2-31.2 5.1-3.9-4.4-9.9-10.4-16.2-13.6 0 0-6.2-3.9-11.7-3.1 0 0-.8 0-1.7.5-.1 0-.2 0-.2.1l-.2.2c-.8.5-1.6 1.3-2.2 2.6-.1.1-.1.3-.2.4 0 0-3 7.1-17.8-2.8 0 0 8.7 13.1 21.6 10.4 0 0 2.4-.8 3.9-2.3 0 0 5.5-6.4 18.7 5.1 0 0-11-6.8-15.6-1 0 0-1.2 1.6-1.8 2.8 0 0-3.5 5.9-11.2-.2 0 0 2.8 7.6 13.1 5.4 0 0 2.3-.3 4.5-3.2 0 0 2.5-4.4 10-1 0 0 6.8 2.6 19.7 22.6l9.2 13.5.1.3h.1l5 7.4 1 1.7s.3-.2-.1-1.5c0-.6-2.7-6.3-3.6-8.4 7.3-2.3 29-9.1 41.4-10.9 0 0 13-3.1 22.2.3 0 0 11.6 3.5 12.6 11.6 0 0 5.9-6.6 5.9-14.9 0-6.2-2.7-10-5.4-12.3l-.2-.2s-.3-.2-.8-.6c-2.1-1.5-3.8-2.1-3.8-2.1-6.2-2.8-19.1-6.5-41.6-4.1 0 0-19.3 2.6-31.2 7.4 0 0-8.5 3.7-12.2 6.3-3.3-5.4-6.2-9.9-7-10.9 0 0-1.1-1.5-2.9-3.7 3.8-.5 16.4-2.3 22.7-2.9 0 0 22.8-2.1 26.9-2 0 0 25.4-.6 27.1-.6h-1.7s24.4 0 31.5-3.1c0 0 3.6-1.6 4.9 3.5 0 0 3.3 11.2.6 21.1 0 0-2.9 14.7-11.2 20.9 0 0 7.3-.3 12.5-10.7 0 0 2.9-5.8 4.3-13.9 7.8-2.6 11.4-11.9 11.4-11.9-.2 12.2-8.7 14.1-8.7 14.1 1.4.8 1.5 3.3 1.5 3.3 4.5 1.2 9.6-2.9 9.6-2.9.8-1 2.9-2.2 2.9-2.2 6.8-3.1 12.9 3.2 12.9 3.2.2-8.8-8.1-6.2-8.1-6.2-5.4 1.8-6.9-.7-6.9-.7 4.8-7.2 2.9-16.4 2.9-16.4-2.3-9.6-6.2-8.5-6.2-8.5 1.3 3.9.5 8.1.5 8.1-2.4 8.6-9.1 11.6-11.2 12.4v-1.2s.2-13.1-2.1-16.5c0 0-2.6-5.6-10-1.6 0 0-4 3.3-17.1 4l-17.9 1.1c-1.2-5.7-2.1-17.7-2.1-17.7l.5-1.6c.5-1.3.9-2.5 1.3-3.7 2.3 5.4 5.8 12.8 8.1 14.2 0 0 22.1 2.5 28.3-4.8l-.8-1.8.7-1s2.3 2.8 7.3 2.5l1-2c.7 1.6 1.8 3.7 3 4.3.2-.1.8-.5 1.4-1.9.2-.3.3-.6.4-.8 0-.1.1-.1.1-.2.1-.2.1-.4.2-.6l39.6 11.3-.7.7c11.7 2.6 13.9-1.4 13.9-1.4l41.7 10.7-1.6-2.9zm-163-74.2s4.9-3.5 8.4-3.3l.7 1.5c.4 1.1.7 2.2.8 3.2-2-.4-7.7-1.1-11.6 3-1.3-1-1.8-2.4 1.7-4.4zm-49.2 30.6l6.1-7.6v-.1l22.4 6.4c-1.8.9-3.1 2.4-3.1 2.4-1.4 1.4-9 5.7-9 5.7-8.3 4.2-16.3 3.8-16.3 3.8-1.1-1.3-.5-7-.1-10.6zm31.1 17.2c1.2-2.5 1.5-5.4-.8-8.2 0 0-30.4 8.9-33.8 4.8 0 0-1.7-3.9-.7-9.6l1.5 1c-.2 4.5.9 7.7.9 7.7 5.2 1.3 21.1-3.3 21.1-3.3 5.8-4 9.3-3.9 9.3-3.9 5.7-.1 6.5 3.3 6.5 5.7-1 2.5-2.5 4.4-4 5.8zm31-20.1h-.2.2zm6.6 16.6l-14-2.3.3 10.1 7.8-1-1 4.7-6.7-.1.4 12.3-1.9-1.2-.4-11.2-10-2.2 9.8-1.3-.1-10.8-14.3-7.3 31.6 8.3-1.5 2zm4.4-11.8c1.8 1.2 3.6 3.3 3.5 6.8l-3.9-1.1c.3-2.1.4-4 .4-5.7zm2.2 18.9s-2.6-4.1-3.6-8.1c.1-.5.2-1 .3-1.4l4 1.1c-.2.8-2.8 11.4 15.9 16.6.1-.1-12.2 1.3-16.6-8.2zm9.8-1c-.8-1.2-1.5-2.5-2.2-4.2v-1.3l18.8 5.4c-4.4 2.3-12.2 5.2-16.6.1zm26.7-1.2c-.1-.9-.1-1.8.1-2.5.8.6 2 2.3 2.6 3.2l-2.7-.7z"/></svg>
